@startuml
hide methods
left to right direction
'skinparam linetype ortho

Title "Domain Model"

skinparam class {
    LifeLineBorderColor DarkBlue
    LifeLineBackgroundColor APPLICATION
    BackgroundColor #F0FFFF
    ArrowColor grey
    BorderColor black
}

skinparam packageStyle rectangle

skinparam card {
    LifeLineBorderColor Green
    LifeLineBackgroundColor APPLICATION
    BackgroundColor #F0FFDD
    ArrowColor DarkGrey
    BorderColor Black
}


package "Customer Aggregate"{
entity Customer <<entity>><<root>>

    card EmailAddress <<Value Object>>{
    }

    Customer --> EmailAddress
}

package "Candidate Aggregate"{
entity Candidate <<entity>><<root>>

    card Curriculum <<Value Object>> {
    }
    card TelephoneNumber <<Value Object>>{
    }

    Candidate --> Curriculum
    Candidate --> TelephoneNumber
}

package "Job Requirements Specification Aggregate"{
entity JobRequirementsSpecification <<entity>><<root>>

    entity Requirements <<entity>>

    JobRequirementsSpecification --> Requirements

}

package "Job Opening Aggregate"{
entity JobOpening <<entity>><<root>>

    card JobReference <<Value Object>> {
    }
    card TitleOrFunction <<Value Object>> {
    }
    card ContractType <<Value Object>> {
    }
    card Mode <<Value Object>> {
    }
    card Address <<Value Object>> {
    }
    card VacanciesNumber <<Value Object>> {
    }
    card Description <<Value Object>> {
    }
    card ActiveSince <<Value Object>>{
    }

    JobOpening --> JobReference
    JobOpening --> TitleOrFunction
    JobOpening --> ContractType
    JobOpening --> Mode
    JobOpening --> Address
    JobOpening --> VacanciesNumber
    JobOpening --> Description
    JobOpening --> ActiveSince

    note right of ContractType
        Can be one of the following:
        - full-time
        - part-time
    end note

    note right of Mode
         Can be one of the following:
         - remote
         - hybrid
         - onsite
    end note

}

package "User Aggregate"{
entity User <<entity>><<root>>

    card UserEmail <<Value Object>> {
    }
    card UserName <<Value Object>> {
    }
    card UserPassword <<Value Object>> {
    }
    card Username<<Value Object>> {
    }

    User --> UserEmail
    User --> UserName
    User --> Username
    User --> UserPassword

}

package "JobInterview Aggregate"{
entity JobInterview <<entity>><<root>>

     card InterviewResults <<Value Object>> {
     }
     card Score <<Value Object>> {
     }
     card InterviewTime <<Value Object>> {
     }
     card InterviewDate <<Value Object>> {
     }

     JobInterview --> InterviewResults
     JobInterview --> Score
     JobInterview --> InterviewTime
     JobInterview --> InterviewDate

}

package "Process Aggregate"{
entity Process <<entity>><<root>>

    card ProcessState <<Value Object>> {
    }
    card ProcessDate <<Value Object>> {
    }
    card ProcessStatus <<Value Object>>{
    }

    Process --> ProcessState
    Process --> ProcessDate
    Process --> ProcessStatus

    note right of ProcessDate
        Can be one of the following:
        - applicationStartDate
        - ScreeningStartDate
        - InterviewsStartDate
        - AnalysisStartDate
        - ResultStartDate
    end note

    note right of ProcessState
        Can be one of the following:
        - Application
        - Screening
        - Interviews
        - Analysis
        - Result
    end note

    note right of ProcessStatus
        Can be one of the following:
        - Open
        - Close
    end note
}

package "Application Aggregate"{
entity Application <<entity>><<root>>

    card ApplicationFiles <<Value Object>>{
    }
    card Status <<Value Object>>{
    }
    card SubmissionDate <<Value Object>>{
    }
    card Rank <<Value Object>>{
    }

    Application --> ApplicationFiles
    Application --> Status
    Application --> SubmissionDate
    Application --> Rank

    note right of Status
        Can be one of the following:
        - submitted
        - pending
        - accepted
        - declined
    end note

    note right of ApplicationFiles
        Can be one of the following:
        - text file with the contents of the email
        - file for each file attached to the email
        - text file with the contents of each file attached to the email
        - text file with the data of the application and candidate
    end note

}

package "Interview Model Aggregate"{
entity InterviewModel <<entity>><<root>>

    card Plugin <<Value Object>> {
    }

    InterviewModel --> Plugin

}

package "Company Aggregate" {
    entity Company <<entity>><<root>>

    card CompanyName <<Value Object>>{
    }
    card CompanyNumber <<Value Object>>{
    }

    Company --> CompanyName
    Company --> CompanyNumber
}

    JobOpening "1" <-- "N " Application : has
    JobOpening "N" --> "1" Customer : associated
    JobOpening  "1" --> "1" Process

    Application "N" --> "1" Candidate
    Application "1" <-- "1" JobInterview

    JobRequirementsSpecification "1" <-- "N" JobOpening : associated

    User "1" ---> "N" JobOpening : Customer Manager manages >

    User "1" ---> "N" Application : Operator registers >

    User "1" --> "N" JobRequirementsSpecification : Language Engineer creates >
    User "1" --> "N" InterviewModel : Language Engineer creates >

    InterviewModel "1" <--- "N" JobOpening : uses

    Customer ---> User
    Customer "N" --> "1" Company : associated <

    Candidate --> User

@enduml