@startuml
hide methods
left to right direction

Title "Resgistering a Candidate Domain Model"

skinparam class {
    LifeLineBorderColor DarkBlue
    LifeLineBackgroundColor APPLICATION
    BackgroundColor #F0FFFF
    ArrowColor grey
    BorderColor black
}

skinparam packageStyle rectangle

skinparam card {
    LifeLineBorderColor Green
    LifeLineBackgroundColor APPLICATION
    BackgroundColor #F0FFDD
    ArrowColor DarkGrey
    BorderColor Black
}

package "Candidate Aggregate"{
entity Candidate <<entity>><<root>>

    card Curriculum <<Value Object>> {
    }

    Candidate --> Curriculum

}

package "User Aggregate"{
entity User <<entity>><<root>>

    card UserEmail <<Value Object>> {
    }
    card UserName <<Value Object>> {
    }
    card UserPassword <<Value Object>> {
    }
    card UserTelephoneNumber <<Value Object>> {
    }

    User --> UserEmail
    User --> UserName
    User --> UserTelephoneNumber
    User --> UserPassword

}

package "Operator Aggregate"{
    entity Operator <<entity>><<root>>
}

    Operator --> User
    Candidate --> User

@enduml