@startuml
hide methods
left to right direction

Title "Domain Model - Authentication and Authorization"

skinparam class {
    LifeLineBorderColor DarkBlue
    LifeLineBackgroundColor APPLICATION
    BackgroundColor #F0FFFF
    ArrowColor grey
    BorderColor black
}

skinparam packageStyle rectangle

skinparam card {
    LifeLineBorderColor Green
    LifeLineBackgroundColor APPLICATION
    BackgroundColor #F0FFDD
    ArrowColor DarkGrey
    BorderColor Black
}

package "Customer Aggregate"{
entity Customer <<entity>><<root>>

    card Company <<Value Object>> {
    }

    Customer --> Company

}

package "Candidate Aggregate"{
entity Candidate <<entity>><<root>>

    card Curriculum <<Value Object>> {
    }

    Candidate --> Curriculum

}

package "User Aggregate"{
entity User <<entity>><<root>>

    card UserEmail <<Value Object>> {
    }
    card UserName <<Value Object>> {
    }
    card UserPassword <<Value Object>> {
    }
    card UserTelephoneNumber <<Value Object>> {
    }

    User --> UserEmail
    User --> UserName
    User --> UserTelephoneNumber
    User --> UserPassword

}

package "Language Engineer Aggregate"{
    entity LanguageEngineer <<entity>><<root>>
}

package "Admin Aggregate"{
    entity Admin <<entity>><<root>>
}

package "Customer Manager Aggregate"{
    entity CustomerManager <<entity>><<root>>
}

package "Operator Aggregate"{
    entity Operator <<entity>><<root>>
}

    Admin ---> User
    CustomerManager ---> User
    Operator --> User
    LanguageEngineer ---> User
    Customer ---> User
    Candidate --> User
    Admin "1" ---> "N" Customer : manages
    Admin "1" ---> "N" CustomerManager : manages
    CustomerManager "1" ---> "N" Customer : registers

@enduml