@startuml
'skinparam linetype ortho
left to right direction

package "ui" {
class DeactivateUserUI {
    + doShow()
    + headline()
}
}

package "authz"{
package "application" {
class DeactivateController {
    + activeUsers()
    + deactivateUser(systemUser)
}
}

package "user"  {
class UserManagementService {
    + UserManagementService(userRepo, policy, encoder)
    + registerNewUser( username,  rawPassword,
    firstName,  lastName,  email, roles, createdOn)
    + registerNewUser( username,  rawPassword,
    firstName,  lastName,  email, roles)
    + registerUser(username, password, name, email, roles)
    + activeUsers()
    + deactivatedUsers()
    + allUsers()
    + userOfIdentity(id)
    + deactivateUser(user)
    + activateUser(user)
}
}
}

DeactivateUserUI ---> DeactivateController

DeactivateController ---> UserManagementService


@enduml