@startuml
hide methods
left to right direction
'skinparam linetype ortho

Title "Domain Model - 1001"

skinparam class {
    LifeLineBorderColor DarkBlue
    LifeLineBackgroundColor APPLICATION
    BackgroundColor #F0FFFF
    ArrowColor grey
    BorderColor black
}

skinparam packageStyle rectangle

skinparam card {
    LifeLineBorderColor Green
    LifeLineBackgroundColor APPLICATION
    BackgroundColor #F0FFDD
    ArrowColor DarkGrey
    BorderColor Black
}


package "Customer Manager Aggregate"{
    entity CustomerManager <<entity>><<root>>
}

package "Customer Aggregate"{
entity Customer <<entity>><<root>>

    card Company <<Value Object>> {
    }

    Customer --> Company

}

package "User Aggregate"{
entity User <<entity>><<root>>

    card UserEmail <<Value Object>> {
    }
    card UserName <<Value Object>> {
    }
    card UserPassword <<Value Object>> {
    }
    card UserTelephoneNumber <<Value Object>> {
    }

    User --> UserEmail
    User --> UserName
    User --> UserTelephoneNumber
    User --> UserPassword

}

    CustomerManager ---> User
    CustomerManager "1" ---> "N" Customer : registers
    Customer ---> User

@enduml